@startuml
skinparam monochrome true
left to right direction

skinparam state {
  BackgroundColor<<A>> Green
  BorderColor Gray
}

[*] --> n0

'baa

state "nein" as n0 <<A>>
state "nein" as n1 <<A>>
state "nein" as n2 <<A>>
state "nein" as n3
state "ja" as j0

n0: 0
n1: 2
n2: 3
n3: 4
j0: 1

n0 --> n0: b
n0 --> n1
n1 --> n1: a
n1 --> n2: b
n2 --> n3: a
n3 --> j0: a
@enduml
