@startuml
'scale 350 width
left to right direction

skinparam state {
  BackgroundColor<<YES>> LightGreen
  BackgroundColor<<NO>> Red
  BorderColor Gray
}

[*] --> n0

state "nein" as n0 <<NO>>
state "nein" as n1 <<NO>>
state "ja" as j0 <<YES>>

n0: 0
j0: 1
n1: 2

'n0 --> j0: ab(a|b)*ab
n0 --> n1: ab(a|b)*
n1 --> j0: ab
@enduml
