@startuml
left to right direction

skinparam state {
  BackgroundColor White
  BorderColor Gray
}
[*] --> S0

state "R" as S0
state "L" as S1
state "R" as S2
state "L" as S3
state "ja" as S4

S0:0
S1:1
S2:2
S3:3
S4:4

S0 --> S1 : #
S1 --> S1 : 1:0
S1 --> S2 : 0:1
S1 --> S2 : #:1
S2 --> S3 : #
S3 --> S3 : 1:0
S3 --> S4 : 0:1
S3 --> S4 : #:1
@enduml
